<svg xmlns="http://www.w3.org/2000/svg" width="48" height="45" viewBox="0 0 48 45">
  <path id="Icon_material-notifications-active" data-name="Icon material-notifications-active" d="M16.405,7.4,12.963,4.1A23.782,23.782,0,0,0,3.045,22.212H7.859A19.31,19.31,0,0,1,16.405,7.4ZM46.231,22.212h4.814A23.926,23.926,0,0,0,41.127,4.1L37.709,7.4a19.421,19.421,0,0,1,8.522,14.815Zm-4.742,1.154c0-7.085-3.948-13.015-10.833-14.585V7.212a3.614,3.614,0,0,0-7.222,0V8.781C16.525,10.35,12.6,16.258,12.6,23.365V34.9L7.787,39.519v2.308H46.3V39.519L41.488,34.9ZM27.045,48.75a4.392,4.392,0,0,0,.963-.092,4.843,4.843,0,0,0,3.466-2.723,4.466,4.466,0,0,0,.361-1.8H22.206A4.753,4.753,0,0,0,27.045,48.75Z" transform="translate(-3.045 -3.75)" fill="#38ab1e"/>
</svg>
