<svg xmlns="http://www.w3.org/2000/svg" width="61.212" height="54.802" viewBox="0 0 61.212 54.802">
  <g id="Group_231" data-name="Group 231" transform="translate(-334 -53)">
    <path id="Path_120" data-name="Path 120" d="M318.219,509.531l-21.14-.114c-.051-11.174.057-22.356-.238-33.523-.106-3.979,1.159-4.949,4.837-4.909,18.688.2,37.38.124,56.07.145.08,11.409.064,22.819.3,34.223.068,3.316-1.027,4.377-4.153,4.241-5.71-.251-11.435-.167-17.154-.222-.036-4.537-.04-9.073-.118-13.609-.092-5.406-3.854-9.144-9.09-9.111-5.211.032-8.849,3.8-8.983,9.3Q318.38,502.743,318.219,509.531ZM305,477.944c.063-2.122-1.078-2.738-2.922-2.624-2.129.131-2.388,1.591-2.33,3.319.061,1.806,1.236,2.135,2.673,2.2C304.432,480.935,305.2,479.911,305,477.944Zm8.141.2c.052-1.941-.7-2.967-2.727-2.832-1.959.131-2.669,1.218-2.616,3.121.051,1.768,1.1,2.273,2.57,2.4C312.284,481,313.307,480.244,313.144,478.144Zm12.923-.157c.005-2.091-1.159-2.72-2.973-2.658-2.166.071-2.354,1.58-2.331,3.285.025,1.816,1.167,2.192,2.619,2.226C325.284,480.885,326.249,480.022,326.068,477.987Zm8.083.472c.019-2.2-.755-3.235-2.723-3.134s-2.58,1.25-2.552,3.1c.027,1.738,1,2.312,2.474,2.406C333.184,480.953,334.277,480.252,334.15,478.459Zm13.056-.08c.1-1.9-.611-3-2.588-3.048s-2.719.965-2.708,2.9c.009,1.6.572,2.578,2.243,2.6C345.808,480.852,347.277,480.651,347.207,478.379Zm8.015-.413c.059-2.122-1.075-2.745-2.926-2.646-2.135.115-2.4,1.561-2.348,3.3.049,1.817,1.212,2.159,2.653,2.222C354.577,480.926,355.414,479.959,355.221,477.966Zm-52.52,9.608c-1.832-.141-2.936.505-2.977,2.631-.04,2.022.8,2.918,2.735,2.88,1.516-.028,2.547-.5,2.561-2.295C305.034,489.09,304.951,487.493,302.7,487.574Zm7.667,5.489c1.714.227,2.8-.38,2.8-2.456-.005-1.7-.228-3.081-2.35-3.054-1.693.02-2.909.47-3.013,2.509C307.71,491.919,308.38,493.034,310.368,493.063Zm36.821-2.519c.133-1.938-.643-2.981-2.6-2.982-1.477,0-2.579.429-2.651,2.178-.067,1.657.008,3.253,2.215,3.315C345.861,493.1,347.207,492.714,347.189,490.544Zm5.672-2.967c-1.73-.122-2.881.414-2.937,2.487-.049,1.812.446,2.966,2.428,3.024,1.737.052,2.881-.415,2.891-2.505C355.249,488.84,354.926,487.49,352.861,487.577ZM305,502.5c.163-1.9-.579-2.876-2.511-2.86-1.785.016-2.779.672-2.761,2.685.015,1.865.726,2.856,2.607,2.922S305.066,504.4,305,502.5Zm8.153-.728c.1-1.8-1.138-2.218-2.874-2.116-1.89.111-2.619,1.131-2.479,3.023.145,1.982,1.285,2.564,3.014,2.564C312.953,505.248,313.139,503.783,313.158,501.776Zm34.046.848c.193-2.006-.662-2.988-2.615-2.963-1.455.017-2.619.385-2.664,2.191-.043,1.683.089,3.27,2.26,3.384C345.981,505.331,347.188,504.711,347.2,502.624Zm5.174-2.945c-1.986-.025-2.532,1.147-2.444,2.985.095,1.994,1.146,2.634,2.916,2.589,2.03-.053,2.384-1.35,2.395-3.085C355.257,500.065,354.093,499.547,352.377,499.679Z" transform="translate(37.166 -401.804)" fill="#38ab1e"/>
    <path id="Path_121" data-name="Path 121" d="M312.178,461.263c15.338-9.915,9.574-9.739,24.567,0Z" transform="translate(40.247 -400.892)" fill="#38ab1e"/>
    <path id="Path_122" data-name="Path 122" d="M323.014,466.929q-5.038,0-10.074,0c-1.314,0-2.11-.44-2.114-1.418,0-1.092,1.1-1.218,2.262-1.218q10.073-.007,20.147.006c1.234,0,2.254.272,2.15,1.322-.1.965-1.043,1.313-2.3,1.313Z" transform="translate(41.599 -401.066)" fill="#38ab1e"/>
  </g>
</svg>
