<svg xmlns="http://www.w3.org/2000/svg" width="49.122" height="50.5" viewBox="0 0 49.122 50.5">
  <path id="Icon_material-settings" data-name="Icon material-settings" d="M46.733,30.725a19.678,19.678,0,0,0,.177-2.474,19.678,19.678,0,0,0-.177-2.474l5.328-4.166a1.274,1.274,0,0,0,.3-1.616l-5.05-8.736a1.269,1.269,0,0,0-1.54-.556l-6.287,2.525a18.448,18.448,0,0,0-4.267-2.475L34.26,4.061A1.231,1.231,0,0,0,33.023,3h-10.1a1.231,1.231,0,0,0-1.237,1.061l-.959,6.691a19.4,19.4,0,0,0-4.267,2.475L10.171,10.7a1.232,1.232,0,0,0-1.54.556l-5.05,8.736a1.245,1.245,0,0,0,.3,1.616l5.328,4.166a20.025,20.025,0,0,0-.177,2.474,20.025,20.025,0,0,0,.177,2.474L3.884,34.891a1.274,1.274,0,0,0-.3,1.616l5.05,8.737a1.269,1.269,0,0,0,1.54.556l6.287-2.525a18.448,18.448,0,0,0,4.267,2.474l.959,6.691A1.231,1.231,0,0,0,22.923,53.5h10.1a1.231,1.231,0,0,0,1.237-1.061l.959-6.691a19.4,19.4,0,0,0,4.267-2.474L45.774,45.8a1.232,1.232,0,0,0,1.54-.556l5.05-8.736a1.274,1.274,0,0,0-.3-1.616l-5.328-4.166ZM27.973,37.088A8.838,8.838,0,1,1,36.81,28.25,8.847,8.847,0,0,1,27.973,37.088Z" transform="translate(-3.406 -3)" fill="#38ab1e"/>
</svg>
