<svg xmlns="http://www.w3.org/2000/svg" width="38.333" height="34.5" viewBox="0 0 38.333 34.5">
  <path id="Icon_material-notifications-active" data-name="Icon material-notifications-active" d="M13.715,6.545l-2.749-2.53A18.06,18.06,0,0,0,3.045,17.9H6.89A14.7,14.7,0,0,1,13.715,6.545ZM37.533,17.9h3.845a18.17,18.17,0,0,0-7.92-13.888l-2.73,2.53A14.781,14.781,0,0,1,37.533,17.9Zm-3.787.885c0-5.432-3.153-9.978-8.651-11.182V6.4A2.772,2.772,0,0,0,22.212,3.75,2.772,2.772,0,0,0,19.328,6.4v1.2c-5.517,1.2-8.651,5.732-8.651,11.182v8.846L6.832,31.173v1.769H37.591V31.173l-3.845-3.538ZM22.212,38.25a3.649,3.649,0,0,0,.769-.071,3.844,3.844,0,0,0,2.768-2.088,3.306,3.306,0,0,0,.288-1.38h-7.69A3.73,3.73,0,0,0,22.212,38.25Z" transform="translate(-3.045 -3.75)" fill="#38ab1e"/>
</svg>
