<svg xmlns="http://www.w3.org/2000/svg" width="45" height="45" viewBox="0 0 45 45">
  <path id="Icon_awesome-slideshare" data-name="Icon awesome-slideshare" d="M16.718,13.507a5.31,5.31,0,0,0-5.526,5.071,5.327,5.327,0,0,0,5.526,5.071,5.327,5.327,0,0,0,5.526-5.071A5.31,5.31,0,0,0,16.718,13.507Zm12.843,0a5.31,5.31,0,0,0-5.526,5.071,5.327,5.327,0,0,0,5.526,5.071,5.31,5.31,0,0,0,5.526-5.071A5.287,5.287,0,0,0,29.561,13.507Zm14.026,7.909-.537.378V4.368A4.252,4.252,0,0,0,38.93,0H6.768a4.252,4.252,0,0,0-4.12,4.368V21.795c-.179-.123-.385-.255-.564-.378C.731,20.485-.165,21.768.65,22.972A23.925,23.925,0,0,0,10.171,29.3C5.129,46.146,22.477,48.836,22.2,40.206c0-.062.027-4.974.027-8.489.457.1.842.2,1.227.272,0,3.489.027,8.155.027,8.217-.278,8.639,17.071,5.95,12.028-10.9a23.993,23.993,0,0,0,9.521-6.327c.815-1.213-.081-2.487-1.442-1.564ZM40.855,23.1c-6.171,3.287-11.491,2.733-14.384,2.61-2.123-.079-2.92.8-3.018,2.188a21.828,21.828,0,0,1-1.818-1.5,3.145,3.145,0,0,0-2.427-.677c-2.839.1-8.034.65-14.1-2.461V6.354c0-3.067.8-4.016,3.636-4.016H37.2c2.714,0,3.663,1.134,3.663,4.016V23.1Z" transform="translate(-0.339)" fill="#38ab1e"/>
</svg>
