<svg xmlns="http://www.w3.org/2000/svg" width="50" height="40" viewBox="0 0 50 40">
  <path id="Icon_awesome-user-clock" data-name="Icon awesome-user-clock" d="M38.75,17.5A11.25,11.25,0,1,0,50,28.75,11.243,11.243,0,0,0,38.75,17.5Zm5,11.742a.764.764,0,0,1-.758.758H38.258a.764.764,0,0,1-.758-.758V23.258a.764.764,0,0,1,.758-.758h.984a.764.764,0,0,1,.758.758V27.5h2.992a.764.764,0,0,1,.758.758ZM25,28.75A13.7,13.7,0,0,1,26.422,22.7a10.41,10.41,0,0,0-1.922-.2H23.2a13.6,13.6,0,0,1-11.391,0H10.5A10.5,10.5,0,0,0,0,33v3.25A3.751,3.751,0,0,0,3.75,40H30.867A13.75,13.75,0,0,1,25,28.75ZM17.5,20a10,10,0,1,0-10-10A10,10,0,0,0,17.5,20Z" fill="#38ab1e"/>
</svg>
