<svg xmlns="http://www.w3.org/2000/svg" width="42.365" height="37.369" viewBox="0 0 42.365 37.369">
  <path id="Path_15" data-name="Path 15" d="M73.418,38.466c.009,10.32-9.432,18.646-21.16,18.663-11.68.016-21.2-8.357-21.205-18.653C31.046,28.16,40.568,19.763,52.276,19.76,63.934,19.757,73.409,28.14,73.418,38.466Zm-28.98-4.2-.134-.016c0-.508-.03-1.018.006-1.524a5.169,5.169,0,0,1,.867-3.1,8.839,8.839,0,0,1,8.541-3.386c2.945.4,6.039,2.771,6.354,5.266.108.859.082,1.729.131,2.595.055.966.066,1.938.206,2.9a3.547,3.547,0,0,1-1.478,3.717,2.041,2.041,0,0,0-.57.822,17.414,17.414,0,0,1-1.473,3.2,2.313,2.313,0,0,0-.179,2.78c1.381,2.551,3.827,3.7,6.861,4.145A2.419,2.419,0,0,0,65.713,51a16.344,16.344,0,0,0,5.972-10.676c.633-5.469-1.242-10.215-5.633-14.081a21.266,21.266,0,0,0-23.181-2.919c-7.19,3.44-10.979,10.253-10.053,17.188A15.793,15.793,0,0,0,38.3,50.532c2.022,1.765,1.26,1.647,4,.955,2.96-.746,5.184-2.269,5.9-5.077a1.221,1.221,0,0,0-.163-1.049A7.514,7.514,0,0,1,46.2,41.634a2.091,2.091,0,0,0-.918-1.221,3.057,3.057,0,0,1-1.305-2.9C44.055,36.425,44.279,35.346,44.438,34.263Z" transform="translate(-31.053 -19.76)" fill="#38ab1e"/>
</svg>
